<?xml version="1.0" encoding="UTF-8"?>
<svg xmlns="http://www.w3.org/2000/svg" xmlns:xlink="http://www.w3.org/1999/xlink" viewBox="0 0 50 50" width="50px" height="50px">
<g id="surface15699387">
<path style=" stroke:none;fill-rule:nonzero;fill:rgb(27.843139%,9.019608%,96.470588%);fill-opacity:1;" d="M 43.75 38.542969 C 43.75 41.417969 41.417969 43.75 38.542969 43.75 L 11.457031 43.75 C 8.582031 43.75 6.25 41.417969 6.25 38.542969 L 6.25 11.457031 C 6.25 8.582031 8.582031 6.25 11.457031 6.25 L 38.542969 6.25 C 41.417969 6.25 43.75 8.582031 43.75 11.457031 Z M 43.75 38.542969 "/>
<path style=" stroke:none;fill-rule:nonzero;fill:rgb(100%,100%,100%);fill-opacity:1;" d="M 34.40625 26.667969 C 33.730469 25.730469 32.75 25.082031 31.488281 24.738281 C 31.488281 24.738281 32.550781 24.355469 33.511719 22.917969 C 34.082031 22 34.375 20.894531 34.375 19.605469 C 34.375 17.363281 33.5625 15.644531 31.9375 14.46875 C 30.3125 13.292969 28.480469 12.5 25.363281 12.5 L 15.625 12.5 L 15.625 37.5 L 26.488281 37.5 C 29.4375 37.480469 31.65625 36.84375 33.167969 35.625 C 34.667969 34.386719 35.417969 32.550781 35.417969 30.105469 C 35.417969 28.75 35.082031 27.605469 34.40625 26.667969 Z M 21.875 16.667969 C 21.875 16.667969 26.21875 16.667969 26.300781 16.667969 C 27.886719 16.667969 29.167969 17.949219 29.167969 19.53125 C 29.167969 21.113281 27.886719 22.394531 26.300781 22.394531 C 26.21875 22.394531 21.875 22.394531 21.875 22.394531 Z M 27.082031 33.332031 L 21.875 33.332031 L 21.875 27.082031 L 27.082031 27.082031 C 28.8125 27.082031 30.207031 28.480469 30.207031 30.207031 C 30.207031 31.9375 28.8125 33.332031 27.082031 33.332031 Z M 27.082031 33.332031 "/>
</g>
</svg>
