<?xml version="1.0" encoding="UTF-8"?>
<svg xmlns="http://www.w3.org/2000/svg" xmlns:xlink="http://www.w3.org/1999/xlink" viewBox="0 0 50 50" width="50px" height="50px">
<g id="surface15455732">
<path style=" stroke:none;fill-rule:nonzero;fill:rgb(27.843139%,9.019608%,96.470588%);fill-opacity:1;" d="M 41.324219 4.167969 L 8.671875 4.167969 C 7.378906 4.167969 6.371094 5.292969 6.515625 6.574219 L 10.253906 40.21875 C 10.351562 41.09375 10.96875 41.824219 11.816406 42.066406 L 24.402344 45.660156 C 24.792969 45.769531 25.203125 45.769531 25.59375 45.660156 L 38.179688 42.066406 C 39.027344 41.824219 39.644531 41.09375 39.742188 40.21875 L 43.480469 6.574219 C 43.621094 5.292969 42.617188 4.167969 41.324219 4.167969 Z M 33.222656 16.667969 L 19.207031 16.667969 L 19.625 21.480469 L 32.285156 21.4375 C 32.289062 21.4375 32.289062 21.4375 32.292969 21.4375 C 32.871094 21.4375 33.425781 21.679688 33.820312 22.109375 C 34.214844 22.539062 34.414062 23.113281 34.367188 23.695312 L 33.570312 33.296875 C 33.496094 34.164062 32.894531 34.894531 32.054688 35.128906 L 25.5625 36.957031 C 25.378906 37.007812 25.1875 37.035156 24.996094 37.035156 C 24.800781 37.035156 24.605469 37.007812 24.421875 36.953125 L 17.980469 35.089844 C 17.160156 34.851562 16.570312 34.140625 16.484375 33.292969 L 16.320312 31.632812 C 16.207031 30.484375 17.042969 29.464844 18.1875 29.351562 C 19.316406 29.257812 20.355469 30.078125 20.464844 31.21875 L 20.492188 31.476562 L 25.007812 32.78125 L 29.535156 31.507812 L 30.023438 25.609375 L 17.722656 25.648438 C 17.71875 25.648438 17.714844 25.648438 17.714844 25.648438 C 16.632812 25.648438 15.734375 24.824219 15.640625 23.746094 L 14.859375 14.765625 C 14.804688 14.183594 15.003906 13.605469 15.398438 13.175781 C 15.792969 12.742188 16.351562 12.5 16.933594 12.5 L 33.222656 12.5 C 34.375 12.5 35.304688 13.433594 35.304688 14.582031 C 35.304688 15.734375 34.375 16.667969 33.222656 16.667969 Z M 33.222656 16.667969 "/>
</g>
</svg>
